<svg xmlns="http://www.w3.org/2000/svg" version="1.1">
		<symbol id="icon-reddit" viewBox="0 0 1024 1024">
			<title>reddit</title>
			<path class="path1" d="M351.916 512.008c35.372 0 64.384 29.006 64.384 64.352 0 35.344-29.012 63.448-64.384 63.448-35.386 0-63.494-28.104-63.494-63.448 0-35.346 28.108-64.352 63.494-64.352v0zM672.068 512.008c-35.372 0-63.492 29.006-63.492 64.352 0 35.344 28.122 63.448 63.492 63.448 35.374 0 64.4-28.104 64.4-63.448 0-35.346-29.026-64.352-64.4-64.352v0z"></path>
			<path class="path2" d="M332.856 742.218c-14.498-10.896-16.326-30.816-5.438-44.43 9.984-14.49 30.842-16.3 44.45-5.434 36.278 28.1 94.318 43.524 140.594 43.524 45.34 0 103.396-15.424 140.58-43.524 13.592-10.868 33.558-9.056 44.432 5.434 10.876 13.614 8.156 33.534-5.438 44.43-47.182 37.156-120.642 58.014-179.574 58.014-59.87 0-132.44-20.856-179.606-58.014v0zM802.68 392.374c-70.742-40.778-159.638-66.162-257.598-71.594l51.714-153.168 139.672 40.778c0 61.636 49.9 111.484 111.55 111.484 61.68 0 112.488-49.848 112.488-111.484 0.002-62.542-50.806-112.39-112.486-112.39-38.996 0-73.46 20.858-93.396 50.754l-169.608-48.928c-16.342-5.448-33.558 3.622-39.028 19.936l-68.008 203.016c-97.052 5.432-185.934 30.818-256.676 71.594-22.684-24.462-56.228-39.872-93.428-39.872-70.742 0.002-127.876 57.092-127.876 127.784 0 48.022 27.202 89.738 66.212 111.468-1.812 10.898-2.718 21.764-2.718 32.63 0 167.668 201.338 303.618 448.966 303.618 246.694 0 448.046-135.95 448.046-303.618 0-10.868-0.906-21.732-2.718-32.63 39.904-21.73 66.212-63.446 66.212-111.468 0-70.692-57.15-127.782-127.892-127.782-37.184 0-69.836 15.41-93.428 39.872v0zM512.46 384.21c211.322 0 383.646 106.956 383.646 240.172 0 132.324-172.324 239.266-383.646 239.266-212.258 0-384.584-106.942-384.584-239.266 0-133.216 172.328-240.172 384.584-240.172v0zM937.822 528.306c-18.124-36.236-45.34-69.77-80.71-98.778 10.876-8.148 24.466-13.596 38.996-13.596 35.372 0 63.494 29.006 63.494 64.352 0 19.032-8.188 36.252-21.78 48.022v0zM166.888 429.53c-35.372 29.008-62.586 62.542-80.726 98.778-13.608-11.772-21.762-28.992-21.762-48.022 0-35.344 29.012-64.352 63.476-64.352 15.422-0.002 29.030 5.446 39.012 13.596v0zM848.020 256.426c-26.28 0-48.058-21.748-48.058-48.038 0-27.196 21.78-48.038 48.058-48.038 26.308 0 48.088 20.842 48.088 48.038 0 26.292-21.78 48.038-48.088 48.038v0z"></path>
		</symbol>

		<symbol id="icon-quora" viewBox="0 0 1024 1024">
			<title>quora</title>
			<path class="path1" d="M512 1024c282.77 0 512-229.23 512-512s-229.23-512-512-512c-282.77 0-512 229.23-512 512s229.23 512 512 512z"></path>
			<path class="path2" d="M765.284 614.376c84.169-204.568-82.991-370.093-264.879-378.068-35.436 4.045-69.418 5.22-97.589 20.812-68.032 28.031-129.557 94.672-153.35 166.494-63.883 192.793 114.645 396.773 324.131 357.256 40.213 63.305 150.012 65.9 150.012 65.9l-0.153-41.623c0 0-60.078-17.82-69.701-55.49 41.759-43.363 86.39-74.165 111.529-135.28v0zM618.9 662.936c-2.32 1.152-4.639 2.312-6.966 3.465-36.692-63.519-130.675-64.427-130.675-64.427v55.498c0 0 47.179 19.346 54.008 54.368 2.32 2.312 4.647 4.625 6.966 6.937-189.59 58.253-260.439-335.254-80.158-412.243 28.569-18.713 70.918-9.456 97.581 3.472 128.202 74.333 128.279 230.989 59.244 352.929v0z"></path>
		</symbol>

		<symbol id="icon-Udacity_Logo" viewBox="0 0 939 1024">
			<title>udacity</title>
			<path class="path1" d="M735.569 960.354v-62.729l-46.222-1.357-1.422-27.259h155.531l13.899 31.407c7.645 17.274 14.609 32.193 15.476 33.152s8.363-13.174 16.659-31.407l15.082-33.152h15.054c8.28 0 15.039 0.8 15.021 1.778s-10.152 22.534-22.519 47.903l-22.485 46.125v58.268h-33.185l0.047-58.074-31.929-67.556h-58.191v125.63h-30.815v-62.729zM628.903 946.046v-77.037h30.815v154.074h-30.815v-77.037zM408.353 967.972c-0.058-0.326-4.636-13.694-10.175-29.707l-10.070-29.114-8.633 25.558c-4.748 14.057-9.35 27.425-10.227 29.707-1.442 3.753 0.351 4.148 18.808 4.148 11.221 0 20.355-0.267 20.297-0.593zM318.459 1022.599c0.041-0.385 12.046-34.834 26.677-76.553l26.602-75.852h34.8l27.034 75.706c14.869 41.638 27.034 76.085 27.034 76.548s-7.676 0.529-17.059 0.146l-17.059-0.697-9.462-29.63h-57.434l-9.461 29.63-15.874 0.701c-8.731 0.385-15.84 0.385-15.799 0zM521.957 1022.181c-22.085-7.892-34.331-21.022-41.011-43.973-9.722-33.401 1.126-76.878 23.425-93.886 17.439-13.301 48.375-19.048 74.458-13.832 7.022 1.404 7.406 2.052 7.371 12.444-0.019 6.030-0.82 12.030-1.778 13.333-0.966 1.315-12.636 2.37-26.203 2.37h-24.461l-9.076 9.724c-11.807 12.65-15.927 30.116-12.158 51.535 4.144 23.547 15.505 34.837 36.837 36.606 7.205 0.597 18.045-0.159 24.090-1.681s11.297-2.453 11.671-2.068c0.374 0.385 1.044 6.566 1.489 13.736l0.81 13.036-10.667 2.773c-14.338 3.727-44.217 3.663-54.798-0.118zM237.045 994.481c17.594-6.666 26.693-23.563 26.769-49.71 0.1-34.238-14.781-49.687-47.858-49.687h-16.090v101.926h15.253c8.389 0 18.256-1.138 21.926-2.528zM179.092 1023.716l-10.107-0.909 1.25-152.614 31.87-0.665c37.793-0.788 53.055 1.917 68.201 12.087 16.891 11.342 25.308 29.321 26.379 56.343 2.572 64.914-36.062 93.089-117.594 85.756zM35.125 1022.726c-11.933-4.393-22.805-13.995-27.465-24.256-3.948-8.693-4.436-16.282-4.483-69.609l-0.052-59.852h30.815v55.821c0 60.661 1.014 66.269 12.971 71.717 9.114 4.153 29.968 3.563 36.53-1.033 10.768-7.542 12.129-15.746 12.129-73.096v-53.409h30.815v52.903c0 58.031-2.072 71.115-13.394 84.57-10.819 12.857-22.925 17.421-48.236 18.183-12.411 0.374-25.71-0.497-29.63-1.94z"></path>
			<path class="path2" d="M388.31 703.981c-88.090-9.1-128.020-23.661-164.96-60.157-35.905-35.474-50.329-68.639-56.552-130.029-1.483-14.634-2.488-92.483-2.488-192.775v-168.227l-6.736-6.736c-4.798-4.798-10.905-7.556-21.226-9.586-16.444-3.235-24.388-9.522-20.273-16.045 2.304-3.653 10.696-4.009 94.457-4.009s92.152 0.356 94.457 4.009c4.655 7.38-3.578 12.644-24.879 15.904-22.174 3.394-29.077 7.059-32.66 17.337-3.438 9.863-3.484 315.785-0.052 347.435 3.261 30.069 10.185 59.246 17.476 73.633 8.586 16.943 27.495 36.381 43.894 45.122 44.691 23.82 126.557 28.474 183.781 10.448 26.205-8.255 35.617-13.464 51.227-28.354 16.806-16.030 26.232-34.744 33.235-65.979 5.235-23.349 5.335-26.983 6.685-242.963l1.371-219.259 5.524-13.706c11.103-27.552 28.473-43.128 55.994-50.213 11.072-2.85 28.633-3.637 81.185-3.637h67.058v7.028c0 9.053-3.385 10.686-29.63 14.295-11.733 1.613-24.838 4.371-29.122 6.127-15.33 6.286-14.73-3.49-14.73 239.914 0 226.174-0.958 255.163-9.547 288.745-7.604 29.73-23.976 58.053-46.689 80.765-43.229 43.229-100.128 59.672-211.615 61.152-30.637 0.407-59.97 0.299-65.185-0.24z"></path>
		</symbol>

		<symbol id="icon-favorite" viewBox="0 0 1024 1024">
			<title>favorite</title>
			<path class="path1" d="M512 910.933l-61.867-56.107c-219.733-199.467-364.8-331.093-364.8-492.16 0-131.627 103.040-234.667 234.667-234.667 74.24 0 145.493 34.56 192 88.96 46.507-54.4 117.76-88.96 192-88.96 131.627 0 234.667 103.040 234.667 234.667 0 161.067-145.067 292.693-364.8 492.16l-61.867 56.107z"></path>
		</symbol>

		<symbol id="icon-expand-less" viewBox="0 0 1024 1024">
			<title>expand-less</title>
			<path class="path1" d="M512 341.333l-256 256 60.373 60.373 195.627-195.627 195.627 195.627 60.373-60.373z"></path>
		</symbol>

		<symbol id="icon-expand-more" viewBox="0 0 1024 1024">
			<title>expand-more</title>
			<path class="path1" d="M707.627 366.293l-195.627 195.627-195.627-195.627-60.373 60.373 256 256 256-256z"></path>
		</symbol>

		<symbol id="icon-github" viewBox="0 0 1024 1024">
			<title>github</title>
			<path class="path1" d="M0 556.41c0 46.398 4.34 88.38 13.022 125.934 8.678 37.554 20.696 70.184 36.052 97.892s34.884 52.078 58.586 73.108c23.7 21.032 49.406 38.224 77.112 51.576 27.706 13.35 59.336 24.198 94.888 32.546 35.552 8.346 71.856 14.188 108.91 17.528 37.054 3.338 77.78 5.006 122.178 5.006 44.732 0 85.628-1.668 122.68-5.006 37.054-3.34 73.442-9.184 109.16-17.528s67.512-19.192 95.388-32.546c27.876-13.354 53.746-30.544 77.616-51.576 23.87-21.030 43.566-45.404 59.086-73.108s27.622-60.336 36.302-97.892c8.68-37.556 13.020-79.536 13.020-125.934 0-82.788-27.708-154.394-83.118-214.816 3.004-8.012 5.758-17.108 8.262-27.29s4.84-24.702 7.010-43.564c2.17-18.862 1.336-40.642-2.504-65.346-3.838-24.704-10.932-49.906-21.284-75.612l-7.51-1.502c-5.342-1-14.106-0.75-26.29 0.752s-26.372 4.506-42.562 9.014c-16.19 4.506-37.054 13.186-62.592 26.038s-52.494 28.958-80.87 48.32c-48.736-13.352-115.668-20.030-200.792-20.030-84.792 0-151.556 6.678-200.294 20.030-28.376-19.362-55.5-35.468-81.37-48.32s-46.484-21.532-61.84-26.038c-15.354-4.508-29.71-7.428-43.062-8.764-13.354-1.336-21.784-1.752-25.288-1.252s-6.26 1.086-8.262 1.752c-10.348 25.706-17.442 50.906-21.28 75.612-3.838 24.704-4.674 46.486-2.504 65.346s4.508 33.382 7.010 43.564c2.504 10.182 5.258 19.278 8.262 27.29-55.414 60.422-83.122 132.026-83.122 214.816zM125.684 682.094c0-48.070 21.866-92.136 65.596-132.194 13.018-12.020 28.208-21.114 45.566-27.292 17.358-6.176 36.97-9.68 58.836-10.516 21.866-0.834 42.812-0.668 62.842 0.502 20.028 1.168 44.732 2.754 74.108 4.756 29.376 2.004 54.748 3.004 76.112 3.004 21.366 0 46.736-1 76.112-3.004 29.378-2.002 54.078-3.588 74.11-4.756 20.030-1.17 40.974-1.336 62.842-0.502 21.866 0.836 41.476 4.34 58.838 10.516 17.356 6.176 32.544 15.27 45.564 27.292 43.73 39.394 65.598 83.456 65.598 132.194 0 28.712-3.59 54.162-10.768 76.364-7.178 22.2-16.358 40.81-27.542 55.83s-26.704 27.79-46.568 38.306c-19.862 10.516-39.222 18.61-58.084 24.288-18.862 5.674-43.066 10.098-72.608 13.27-29.546 3.172-55.916 5.092-79.118 5.758-23.2 0.668-52.66 1.002-88.378 1.002s-65.178-0.334-88.378-1.002c-23.2-0.666-49.574-2.586-79.116-5.758s-53.744-7.596-72.606-13.27c-18.86-5.678-38.222-13.774-58.084-24.288s-35.386-23.282-46.568-38.306c-11.182-15.022-20.364-33.63-27.54-55.83-7.178-22.202-10.766-47.656-10.766-76.364zM640 672c0-53.019 28.654-96 64-96s64 42.981 64 96c0 53.019-28.654 96-64 96s-64-42.981-64-96zM256 672c0-53.019 28.654-96 64-96s64 42.981 64 96c0 53.019-28.654 96-64 96s-64-42.981-64-96z"></path>
		</symbol>

		<symbol id="icon-github2" viewBox="0 0 1024 1024">
			<title>github2</title>
			<path class="path1" d="M512 831.892c-19.154 0-38.308-9.916-58.142-29.75-7.81-7.81-7.81-20.474 0-28.286 7.81-7.808 20.474-7.808 28.286 0 12.206 12.21 21.972 18.144 29.856 18.144 7.882 0 17.65-5.934 29.858-18.142 7.812-7.808 20.472-7.808 28.286 0 7.81 7.81 7.81 20.474 0 28.286-19.836 19.832-38.99 29.748-58.144 29.748zM0 525.492c0 49.892 4.266 95.122 12.8 135.682s20.534 75.74 36 105.532c15.466 29.792 35.022 55.904 58.666 78.34s49.332 40.92 77.066 55.458c27.734 14.536 59.466 26.296 95.2 35.266 35.732 8.974 72.088 15.256 109.066 18.846s77.69 5.384 122.134 5.384c44.444 0 85.242-1.79 122.398-5.38s73.602-9.872 109.332-18.846c35.734-8.974 67.558-20.73 95.468-35.266 27.91-14.538 53.778-33.026 77.598-55.458 23.824-22.436 43.47-48.548 58.934-78.34 15.47-29.794 27.56-64.974 36.27-105.532 8.71-40.56 13.066-85.788 13.066-135.68 0-89.38-27.736-166.372-83.2-230.982 3.2-8.616 5.954-18.486 8.266-29.614 2.308-11.128 4.532-26.832 6.664-47.112 2.138-20.282 1.336-43.704-2.398-70.264-3.734-26.564-10.754-53.664-21.066-81.302l-8-1.618c-5.332-1.076-14.042-0.718-26.132 1.080-12.086 1.794-26.222 5.022-42.398 9.69-16.176 4.664-37.066 13.908-62.668 27.728-25.598 13.818-52.62 31.318-81.066 52.496-48.356-14.718-115.020-30.116-200-30.116-84.976 0-151.822 15.396-200.53 30.114-28.446-21.18-55.556-38.588-81.334-52.228-25.78-13.642-46.402-22.974-61.868-27.998-15.468-5.024-29.778-8.256-42.934-9.69-13.156-1.436-21.602-1.886-25.334-1.346-3.732 0.538-6.488 1.166-8.266 1.884-10.314 27.64-17.424 54.74-21.336 81.304-3.91 26.56-4.8 49.892-2.666 69.992 2.134 20.102 4.444 35.898 6.934 47.382 2.49 11.486 5.334 21.358 8.534 29.614-55.466 64.25-83.2 141.242-83.2 230.98zM136.536 639.404c0-58.022 21.332-110.638 64-157.856 12.8-14.406 27.646-25.312 44.534-32.712 16.89-7.402 36.088-11.606 57.6-12.606s42.044-0.8 61.6 0.6c19.556 1.402 43.734 3.302 72.534 5.702 28.798 2.404 53.688 3.602 74.666 3.602 20.976 0 45.868-1.2 74.664-3.602 28.806-2.4 52.982-4.3 72.536-5.702 19.56-1.4 40.090-1.6 61.602-0.6 21.512 1.002 40.802 5.204 57.868 12.606 17.066 7.4 32 18.306 44.8 32.712 42.664 47.218 64 99.834 64 157.856 0 34.012-3.554 64.324-10.668 90.934-7.11 26.612-16.090 48.916-26.934 66.922-10.844 18.008-26.048 33.218-45.598 45.62-19.558 12.406-38.492 22.010-56.8 28.81-18.312 6.8-41.958 12.104-70.934 15.906-28.982 3.796-54.934 6.102-77.872 6.9-22.934 0.8-51.82 1.2-86.664 1.2s-63.644-0.402-86.4-1.2c-22.756-0.798-48.622-3.104-77.6-6.9-28.978-3.802-52.622-9.104-70.934-15.906-18.31-6.802-37.244-16.404-56.8-28.81-19.556-12.404-34.756-27.612-45.6-45.62-10.846-18.006-19.824-40.31-26.934-66.922-7.11-26.61-10.666-56.922-10.666-90.934zM256 608.004c0-53.019 28.654-96 64-96s64 42.981 64 96c0 53.019-28.654 96-64 96s-64-42.981-64-96zM640 608.004c0-53.019 28.654-96 64-96s64 42.981 64 96c0 53.019-28.654 96-64 96s-64-42.981-64-96z"></path>
		</symbol>
</svg>
